<svg width="16" height="16" viewBox="0 0 16 16" fill="none" xmlns="http://www.w3.org/2000/svg">
<path d="M8.00004 14C7.158 13.2818 6.3775 12.4944 5.66671 11.646C4.60004 10.372 3.33337 8.47469 3.33337 6.66669C3.33291 5.74333 3.60638 4.84058 4.11917 4.0727C4.63196 3.30482 5.36102 2.70633 6.21409 2.35295C7.06715 1.99958 8.00587 1.90721 8.91145 2.08755C9.81703 2.26788 10.6488 2.71281 11.3014 3.36602C11.7359 3.79859 12.0803 4.31305 12.3146 4.8796C12.549 5.44616 12.6687 6.05357 12.6667 6.66669C12.6667 8.47469 11.4 10.372 10.3334 11.646C9.62258 12.4944 8.84208 13.2818 8.00004 14ZM8.00004 4.66669C7.46961 4.66669 6.9609 4.8774 6.58583 5.25247C6.21075 5.62755 6.00004 6.13625 6.00004 6.66669C6.00004 7.19712 6.21075 7.70583 6.58583 8.0809C6.9609 8.45597 7.46961 8.66669 8.00004 8.66669C8.53047 8.66669 9.03918 8.45597 9.41426 8.0809C9.78933 7.70583 10 7.19712 10 6.66669C10 6.13625 9.78933 5.62755 9.41426 5.25247C9.03918 4.8774 8.53047 4.66669 8.00004 4.66669Z" fill="#954F1D"/>
</svg>
